<?xml version="1.0" encoding="UTF-8" standalone="no"?>
<!-- Created with Inkscape (http://www.inkscape.org/) -->

<svg
   width="199.99992mm"
   height="200mm"
   viewBox="0 0 199.99992 200"
   version="1.1"
   id="svg5"
   xml:space="preserve"
   inkscape:version="1.2.1 (9c6d41e4, 2022-07-14)"
   sodipodi:docname="favicon.svg"
   xmlns:inkscape="http://www.inkscape.org/namespaces/inkscape"
   xmlns:sodipodi="http://sodipodi.sourceforge.net/DTD/sodipodi-0.dtd"
   xmlns="http://www.w3.org/2000/svg"
   xmlns:svg="http://www.w3.org/2000/svg"><sodipodi:namedview
     id="namedview7"
     pagecolor="#ffffff"
     bordercolor="#000000"
     borderopacity="0.25"
     inkscape:showpageshadow="2"
     inkscape:pageopacity="0.0"
     inkscape:pagecheckerboard="0"
     inkscape:deskcolor="#d1d1d1"
     inkscape:document-units="mm"
     showgrid="false"
     inkscape:zoom="0.53445833"
     inkscape:cx="377.01723"
     inkscape:cy="377.95276"
     inkscape:window-width="1152"
     inkscape:window-height="624"
     inkscape:window-x="0"
     inkscape:window-y="25"
     inkscape:window-maximized="0"
     inkscape:current-layer="layer1" /><defs
     id="defs2" /><g
     inkscape:label="Layer 1"
     inkscape:groupmode="layer"
     id="layer1"
     transform="translate(-99.030519,-127.81403)"><g
       id="g18762"
       transform="matrix(41.177088,0,0,41.177088,-3978.758,-5135.198)"><path
         id="rect1948"
         style="fill:#974233;stroke-width:1.2364"
         d="m 100.62991,127.96188 a 2.4286733,2.4286733 0 0 0 -1.599388,2.281 2.4286733,2.4286733 0 0 0 1.599388,2.281 z" /><path
         id="rect1950"
         style="fill:#607d47;fill-opacity:1;stroke-width:1.2364"
         d="m 102.28821,127.96033 v 4.56355 a 2.4286733,2.4286733 0 0 0 1.59938,-2.281 2.4286733,2.4286733 0 0 0 -1.59938,-2.28255 z" /><path
         id="rect1952"
         style="fill:#345867;fill-opacity:1;stroke-width:1.2364"
         d="m 101.45932,127.81409 a 2.4286733,2.4286733 0 0 0 -0.82941,0.14779 v 4.562 a 2.4286733,2.4286733 0 0 0 0.82941,0.14728 2.4286733,2.4286733 0 0 0 0.82889,-0.14728 v -4.56355 a 2.4286733,2.4286733 0 0 0 -0.82889,-0.14624 z" /></g><text
       xml:space="preserve"
       style="font-size:145.035px;line-height:0.5;font-family:'Arrus BT';-inkscape-font-specification:'Arrus BT';text-align:center;text-anchor:middle;fill:#ffffff;stroke:none;stroke-width:75.3055"
       x="189.14191"
       y="307.16986"
       id="text236"
       transform="scale(1.0389729,0.96248904)"><tspan
         sodipodi:role="line"
         id="tspan234"
         style="fill:#ffffff;stroke:none;stroke-width:75.3055"
         x="189.14191"
         y="307.16986">𓏞</tspan></text></g></svg>
